<svg width="24" height="24" viewBox="0 0 24 24" fill="none" xmlns="http://www.w3.org/2000/svg">
<path d="M12.4998 16.4055C15.0387 17.3678 14.7386 20.4037 14.2713 21.8014C11.3992 22.6635 9.63095 20.5001 9.39038 19.4947C9.91603 18.4747 11.7545 19.3239 12.3236 19.6919C11.6759 18.593 12.1712 17.0432 12.4998 16.4055Z" fill="black"/>
<path d="M11.5104 12.9294C13.0027 14.8317 11.6408 16.9074 10.7733 17.7075C8.3511 16.9802 7.8739 14.5647 8.07665 13.7167C8.84449 13.22 9.86766 14.7089 10.1448 15.2465C10.0854 14.1379 11.0304 13.2399 11.5104 12.9294Z" fill="black"/>
<path d="M11.7303 8.59899C12.2893 10.9545 10.3221 12.0903 9.26859 12.3636C7.45883 10.5747 7.97085 8.26375 8.46969 7.63016C9.32138 7.57041 9.63419 9.34457 9.6675 9.94088C10.04 8.95698 11.1979 8.63629 11.7303 8.59899Z" fill="black"/>
<path d="M13.3221 5.88758C12.9185 7.32651 11.4409 7.07915 10.7525 6.77553C10.2646 5.09989 11.2688 4.13443 11.7497 4.02054C12.2566 4.34839 11.8905 5.38661 11.7263 5.70536C12.2425 5.35929 13.0053 5.68264 13.3221 5.88758Z" fill="black"/>
<path d="M13.6252 3.7608C13.3529 3.23581 14.1634 2.53238 14.4563 2.34165C15.1248 1.90628 15.4503 2.06174 16 2C15.1653 3.6197 14.0883 3.89811 13.6252 3.7608Z" fill="black"/>
</svg>
