<svg width="58" height="58" viewBox="0 0 58 58" fill="none" xmlns="http://www.w3.org/2000/svg">
<path d="M16.4276 48.1942C15.7797 48.6234 14.9544 47.9883 15.2037 47.2527L17.702 39.8904C11.4345 37.0307 7.24959 31.8613 7.24959 25.9613C7.25047 16.9626 16.9875 9.66659 28.9986 9.66659C41.0097 9.66659 50.7468 16.9626 50.7476 25.9613C50.7476 34.9607 41.0103 42.2561 28.9986 42.2561C27.8685 42.2561 26.7583 42.1949 25.6747 42.0704L16.4276 48.1942Z" fill="black"/>
<path d="M39.1299 31.7514C39.0136 31.7413 38.8915 31.7058 38.7656 31.6449C38.6689 31.5841 38.5827 31.4818 38.5053 31.3402C38.4859 31.2996 38.47 31.2736 38.4603 31.2634C38.4601 31.2527 38.4511 31.217 38.4319 31.1569C38.3739 31.0556 38.3444 30.9536 38.3444 30.8522C38.3348 30.792 38.3256 30.7366 38.316 30.6863C38.316 30.6355 38.3115 30.5787 38.3018 30.5178C38.2921 30.4773 38.2876 30.437 38.2876 30.3965L38.2876 30.2751C38.2972 30.2248 38.3017 30.184 38.3018 30.1537L38.3018 30.015L38.2876 28.8136L38.271 26.5768C38.271 25.9275 38.2575 25.227 38.2285 24.4762C38.2188 24.1113 38.2143 23.7867 38.2143 23.5028C38.2143 23.2189 38.2188 22.8989 38.2285 22.5441L38.2285 22.4822C38.2478 22.3707 38.2568 22.2641 38.2568 22.1627C38.2569 22.0511 38.2614 21.9445 38.271 21.8431C38.2711 21.6402 38.3163 21.4367 38.4035 21.2338C38.4617 21.0819 38.5637 20.9608 38.7088 20.8696C38.7862 20.819 38.8587 20.7881 38.9265 20.778C39.0037 20.7577 39.0856 20.7363 39.1725 20.7161C39.2402 20.7161 39.3038 20.7233 39.3618 20.7334C39.4296 20.7435 39.493 20.753 39.5511 20.7631C39.6771 20.7834 39.7947 20.8378 39.9013 20.9291C39.9301 20.9592 39.953 20.9955 39.9723 21.0356C40.0013 21.0762 40.0262 21.1283 40.0456 21.1892C40.0939 21.2703 40.128 21.3866 40.1473 21.5384C40.157 21.5993 40.1615 21.6609 40.1615 21.7217C40.1712 21.7826 40.1757 21.849 40.1757 21.9199L40.1757 22.5441L40.1899 24.3995C40.345 24.2574 40.4965 24.1107 40.6419 23.9585C40.7969 23.8064 40.9461 23.643 41.0914 23.4706C41.3529 23.1867 41.6109 22.9143 41.8628 22.6506C42.1244 22.3767 42.3866 22.1069 42.6483 21.8431L42.6909 21.7985C42.7684 21.7174 42.8476 21.6392 42.9251 21.5682C43.0119 21.4874 43.094 21.411 43.1712 21.3403C43.3163 21.1682 43.4956 21.0471 43.7083 20.9761C43.844 20.8848 44.0045 20.8494 44.1886 20.8696C44.2754 20.8797 44.3529 20.8989 44.4205 20.9291C44.498 20.9595 44.5727 21.0022 44.6405 21.0529C44.6886 21.1032 44.7368 21.1489 44.7849 21.1892C44.8332 21.2196 44.8718 21.2599 44.9008 21.3105C44.9783 21.3816 45.0281 21.488 45.0475 21.6301C45.0475 21.7417 45.0271 21.8435 44.9884 21.9348C44.9594 21.9853 44.9298 22.0354 44.9008 22.0859C44.8717 22.1366 44.8378 22.1887 44.7991 22.2395C44.751 22.2998 44.7075 22.355 44.6689 22.4054C44.6303 22.456 44.5871 22.5084 44.5388 22.559C44.5 22.6097 44.4548 22.6546 44.4063 22.6952C44.3677 22.7356 44.3289 22.781 44.2904 22.8315L44.1011 23.0296L41.3824 25.9377C41.5278 26.0899 41.6793 26.2508 41.8344 26.4232C41.999 26.5854 42.1528 26.749 42.2981 26.9112C42.4433 27.0632 42.5793 27.2103 42.7051 27.3521C42.8311 27.484 42.9396 27.5952 43.0269 27.6865C43.2883 27.9704 43.5396 28.2548 43.7817 28.5387C44.0238 28.8124 44.2614 29.092 44.4938 29.3759L44.5388 29.423C44.616 29.5039 44.6889 29.5896 44.7565 29.6806C44.8242 29.7616 44.8877 29.8423 44.9458 29.9233C45.0911 30.0958 45.1928 30.2852 45.251 30.4881C45.328 30.6398 45.3326 30.7922 45.2652 30.9439C45.2167 31.1062 45.133 31.2293 45.0167 31.3105C44.9591 31.3608 44.9064 31.4064 44.8582 31.4467C44.8098 31.4772 44.7555 31.5032 44.6973 31.5235C44.5908 31.5842 44.4639 31.6032 44.3188 31.583C44.2611 31.5829 44.2083 31.5733 44.1602 31.5533C44.1118 31.533 44.062 31.5069 44.0135 31.4765C43.9653 31.4462 43.9128 31.4151 43.855 31.3848C43.8065 31.3442 43.7568 31.304 43.7083 31.2634C43.6506 31.2131 43.5979 31.1675 43.5498 31.1272C43.5014 31.0866 43.456 31.0416 43.4173 30.991C43.3688 30.9402 43.3259 30.8881 43.2871 30.8374C43.2485 30.7869 43.2098 30.7416 43.1712 30.7011L42.9961 30.503L40.2065 27.4438L40.2491 30.503L40.2491 30.6392C40.2491 30.6798 40.2446 30.7272 40.2349 30.7779C40.2253 30.8183 40.2161 30.8638 40.2065 30.9142C40.1775 31.0457 40.1434 31.1622 40.1048 31.2634C40.0854 31.3243 40.056 31.3764 40.0172 31.417C39.9882 31.4575 39.9541 31.4979 39.9155 31.5384C39.8089 31.6398 39.6822 31.6942 39.5369 31.7044C39.3916 31.7551 39.2559 31.7717 39.1299 31.7514ZM21.3039 31.6598C21.0332 31.7001 20.7767 31.6502 20.5349 31.5087C20.4673 31.4783 20.4082 31.4426 20.3598 31.4022C20.3113 31.3514 20.2729 31.2993 20.2439 31.2486C20.1761 31.1472 20.1421 31.0359 20.1421 30.9142L20.1421 30.7309C20.1517 30.6706 20.1609 30.6103 20.1705 30.55C20.1899 30.4587 20.2148 30.3664 20.2439 30.2751C20.2704 30.1916 20.2842 30.146 20.2865 30.1388L23.3103 22.346L23.3979 22.1032C23.4172 22.0423 23.4421 21.9855 23.4712 21.9348C23.5002 21.8841 23.5252 21.8224 23.5446 21.7515C23.5929 21.6201 23.6451 21.5034 23.7031 21.4022C23.7322 21.3413 23.7661 21.2845 23.8048 21.2338C23.8434 21.1833 23.8822 21.1331 23.9208 21.0827C23.9789 21.0015 24.0626 20.9352 24.1692 20.8845C24.3045 20.834 24.4591 20.8078 24.6329 20.8077C24.8169 20.8077 24.9776 20.8338 25.1133 20.8845C25.2199 20.9352 25.3036 21.0015 25.3617 21.0827C25.4294 21.1738 25.502 21.2807 25.5794 21.4022C25.6373 21.5034 25.6896 21.6201 25.7379 21.7515C25.7573 21.8225 25.7822 21.8841 25.8113 21.9348C25.8403 21.9855 25.8652 22.0423 25.8846 22.1032L25.9722 22.346L28.996 30.1388C28.9984 30.1463 29.0121 30.192 29.0386 30.2751C29.0677 30.3664 29.0926 30.4588 29.1119 30.55C29.1215 30.6103 29.1261 30.6706 29.1261 30.7309C29.1358 30.7816 29.1403 30.8431 29.1403 30.9142C29.1403 31.0358 29.1063 31.1472 29.0386 31.2486C29.0095 31.2993 28.9711 31.3514 28.9227 31.4022C28.8742 31.4427 28.8153 31.4783 28.7476 31.5087C28.5055 31.6504 28.2474 31.7003 27.9762 31.6598C27.841 31.6192 27.7205 31.5527 27.6142 31.4616C27.5949 31.4414 27.5789 31.4319 27.5693 31.4319C27.5597 31.4217 27.5504 31.4048 27.5409 31.3848C27.5314 31.3749 27.5219 31.365 27.5125 31.3551C27.5028 31.3349 27.4868 31.3206 27.4675 31.3105C27.4192 31.2599 27.3806 31.2123 27.3516 31.1718C27.3227 31.1214 27.2929 31.071 27.264 31.0207C27.2448 30.9704 27.2218 30.9247 27.1931 30.8844C27.1737 30.8337 27.1488 30.7816 27.1197 30.7309C27.1004 30.6905 27.0799 30.6547 27.0606 30.6244C27.0414 30.5841 27.0276 30.5433 27.018 30.503C26.9793 30.4119 26.9543 30.3311 26.9446 30.2602L26.6394 29.5146C25.9709 29.5146 25.3015 29.5193 24.6329 29.5295C23.9745 29.5295 23.3112 29.5248 22.6431 29.5146L22.3378 30.2602C22.3185 30.3008 22.3026 30.341 22.2929 30.3816C22.2929 30.422 22.2838 30.4625 22.2645 30.503C22.2451 30.5435 22.2247 30.5838 22.2053 30.6244C22.1957 30.6546 22.182 30.6905 22.1628 30.7309C22.1337 30.7816 22.1043 30.8337 22.0752 30.8844C22.0559 30.9249 22.0308 30.9702 22.0019 31.0207C21.9827 31.0709 21.9596 31.1216 21.9309 31.1718C21.9018 31.2124 21.861 31.2598 21.8126 31.3105L21.7416 31.3848C21.7319 31.4051 21.7205 31.4217 21.7108 31.4319L21.4979 31.5805C21.4373 31.6135 21.3718 31.6395 21.3039 31.6598ZM16.5268 31.5384C16.3621 31.5181 16.2354 31.4731 16.1482 31.4022C16.061 31.3108 15.9977 31.2185 15.9589 31.1272C15.9009 31.0157 15.8668 30.909 15.8572 30.8077C15.8281 30.7164 15.8146 30.6192 15.8146 30.5178L15.8146 22.6952L14.8539 22.6952C14.6511 22.6851 14.4578 22.6756 14.2742 22.6655C14.0906 22.6554 13.9636 22.6459 13.8957 22.6358C13.8375 22.6256 13.7448 22.609 13.6188 22.5887C13.5027 22.5684 13.4053 22.5495 13.3278 22.5293C13.1244 22.4684 12.9637 22.3713 12.8475 22.2395C12.7413 22.1078 12.6891 21.9605 12.689 21.7985L12.689 21.6152C12.689 21.5544 12.698 21.4975 12.7174 21.4468C12.7465 21.3259 12.8243 21.2254 12.9492 21.1446C12.9879 21.1142 13.0472 21.0785 13.1243 21.0381C13.2115 20.9873 13.2952 20.9519 13.3728 20.9316C13.489 20.8911 13.6339 20.8602 13.8081 20.8399C13.8854 20.8298 13.9627 20.8251 14.04 20.825L15.2467 20.825C15.5568 20.825 15.8823 20.8178 16.2215 20.8077C16.7832 20.7976 17.34 20.7976 17.892 20.8077C18.4541 20.8077 19.0124 20.8196 19.5648 20.8399C19.6908 20.8501 19.8129 20.8642 19.9292 20.8845C20.0451 20.9048 20.1611 20.9405 20.277 20.991C20.3638 21.0213 20.4459 21.062 20.5231 21.1124C20.6005 21.1529 20.6639 21.2099 20.7124 21.2808C20.819 21.4127 20.8732 21.55 20.8732 21.692C20.8732 21.7528 20.8687 21.8194 20.859 21.8902C20.859 21.9504 20.8544 22.0059 20.8449 22.0561C20.8158 22.1675 20.7521 22.2744 20.6556 22.3757C20.5782 22.4365 20.4715 22.484 20.3361 22.5144C20.2686 22.5346 20.2002 22.5488 20.1327 22.559C20.0648 22.5691 19.9901 22.5833 19.9126 22.6036C19.8451 22.6136 19.7767 22.6209 19.7091 22.6209L18.7509 22.6209C18.5766 22.6311 18.4022 22.6358 18.228 22.6358L17.7335 22.6358C17.7431 22.9499 17.7476 23.2892 17.7476 23.6539C17.7476 24.0089 17.7431 24.4256 17.7335 24.9023C17.7335 25.3792 17.7289 25.9329 17.7193 26.5619L17.7193 29.911C17.7193 30.0119 17.7238 30.0883 17.7335 30.1388L17.7335 30.2602C17.7334 30.2906 17.7289 30.3311 17.7193 30.3816C17.6999 30.4729 17.684 30.5794 17.6743 30.7011C17.6743 30.7515 17.6697 30.8019 17.6601 30.8522C17.6504 30.8928 17.6369 30.9402 17.6175 30.991C17.5788 31.0315 17.5584 31.0623 17.5584 31.0826L17.5158 31.1743C17.4673 31.2754 17.3741 31.3706 17.2389 31.4616C17.0258 31.5732 16.7883 31.5992 16.5268 31.5384ZM31.4402 31.7366C31.2079 31.7162 30.995 31.6593 30.8013 31.5681C30.6174 31.4667 30.4861 31.3103 30.4086 31.0975C30.3892 31.0467 30.3757 30.9993 30.366 30.9588C30.3564 30.9084 30.3518 30.858 30.3518 30.8077C30.313 30.4627 30.2971 30.1219 30.3068 29.7871C30.3165 29.4526 30.321 29.1231 30.321 28.7987L30.3518 26.5917L30.3518 23.5795C30.3615 23.2956 30.3705 22.9805 30.3802 22.6358L30.3802 22.559L30.4086 21.9496C30.428 21.7167 30.4824 21.5197 30.5694 21.3576C30.6276 21.2054 30.7293 21.0823 30.8747 20.991C31.0004 20.9001 31.1503 20.8548 31.3242 20.8548L31.7028 20.8845C31.7609 20.8946 31.8153 20.916 31.8637 20.9464C31.9214 20.9768 31.9787 21.0175 32.0364 21.0678C32.0945 21.1387 32.1489 21.2242 32.1973 21.3254C32.2361 21.437 32.261 21.5507 32.2707 21.6623C32.2802 21.7325 32.2895 21.7977 32.2991 21.858C32.3087 21.9188 32.3132 21.9805 32.3133 22.0413C32.2939 22.1022 32.2849 22.1637 32.2849 22.2246L32.2849 22.6655L32.2257 29.8342L35.1052 29.8639L35.7867 29.8639C35.8446 29.8639 35.9084 29.8687 35.9759 29.8788C36.0435 29.8788 36.1118 29.8835 36.1794 29.8936C36.2567 29.9037 36.3249 29.9157 36.3829 29.9258C36.441 29.936 36.4999 29.9501 36.558 29.9704C36.6646 30.0008 36.7528 30.053 36.8206 30.124C36.9264 30.2249 36.995 30.3253 37.0241 30.4262C37.0435 30.4769 37.0525 30.5551 37.0525 30.6566L37.0525 30.8844C37.0524 30.9654 37.0366 31.0415 37.0076 31.1123C36.9785 31.1831 36.9399 31.2498 36.8916 31.3105C36.8046 31.4316 36.6793 31.5222 36.5154 31.583C36.2828 31.6641 36.0635 31.7068 35.86 31.7068C35.7537 31.7169 35.6424 31.7217 35.5264 31.7217C35.4101 31.7217 35.2925 31.7311 35.1762 31.7514L32.1524 31.7514C31.9104 31.7716 31.6725 31.767 31.4402 31.7366ZM25.6669 26.8196C25.5411 26.5257 25.4097 26.2221 25.2742 25.908C25.1483 25.5939 25.0124 25.2736 24.8672 24.9494C24.8285 24.8582 24.7899 24.7655 24.7513 24.6744C24.7125 24.573 24.6717 24.4759 24.6329 24.3846C24.6039 24.4759 24.57 24.573 24.5312 24.6744C24.4925 24.7656 24.454 24.8582 24.4153 24.9494C24.2701 25.2737 24.1296 25.5938 23.9941 25.908C23.8683 26.2221 23.7414 26.5257 23.6155 26.8196L23.3553 27.4909L25.9272 27.4909L25.6669 26.8196Z" fill="white"/>
</svg>
