<svg width="58" height="58" viewBox="0 0 58 58" fill="none" xmlns="http://www.w3.org/2000/svg">
<path d="M16.4187 50.7382C11.4763 50.4874 7.51258 46.5237 7.26181 41.5813L7.25001 41.0833L7.25 16.9167C7.25 11.5779 11.5779 7.25 16.9167 7.25L41.0833 7.25C46.4221 7.25 50.75 11.5779 50.75 16.9167L50.75 41.0833C50.75 46.2551 46.6887 50.4791 41.5813 50.7382L41.0833 50.75L16.9167 50.75L16.4187 50.7382ZM41.0833 47.125C44.4201 47.125 47.125 44.4201 47.125 41.0833L47.125 16.9167C47.125 13.5799 44.4201 10.875 41.0833 10.875L16.9167 10.875C13.58 10.875 10.875 13.58 10.875 16.9167L10.875 41.0833C10.875 44.4201 13.58 47.125 16.9167 47.125L41.0833 47.125ZM41.0833 19.3333C39.7487 19.3333 38.6667 18.2514 38.6667 16.9167C38.6667 15.582 39.7487 14.5 41.0833 14.5C42.418 14.5 43.5 15.582 43.5 16.9167C43.5 18.2514 42.418 19.3333 41.0833 19.3333ZM29 38.6667C23.6613 38.6667 19.3333 34.3388 19.3333 29C19.3333 23.6613 23.6613 19.3333 29 19.3333C34.3388 19.3333 38.6667 23.6612 38.6667 29C38.6667 34.3388 34.3388 38.6667 29 38.6667ZM29 35.0417C32.3367 35.0417 35.0417 32.3367 35.0417 29C35.0417 25.6633 32.3367 22.9583 29 22.9583C25.6633 22.9583 22.9583 25.6633 22.9583 29C22.9583 32.3367 25.6633 35.0417 29 35.0417Z" fill="black"/>
</svg>
