<svg width="58" height="58" viewBox="0 0 58 58" fill="none" xmlns="http://www.w3.org/2000/svg">
<path d="M16.917 50.75L16.419 50.7373C11.3115 50.4783 7.25001 46.2548 7.25 41.083L7.25 16.917C7.25 11.7452 11.3115 7.52174 16.4189 7.2627L16.917 7.25L41.083 7.25C46.4218 7.25 50.75 11.5782 50.75 16.917L50.75 41.083C50.75 46.4218 46.4218 50.75 41.083 50.75L16.917 50.75ZM41.083 47.125C44.4197 47.125 47.125 44.4197 47.125 41.083L47.125 16.917C47.125 13.5803 44.4197 10.875 41.083 10.875L16.917 10.875C13.5803 10.875 10.875 13.5803 10.875 16.917L10.875 41.083C10.875 44.4197 13.5803 47.125 16.917 47.125L41.083 47.125ZM38.667 12.083L41.084 12.084L41.084 45.917L38.667 45.917L38.667 12.083ZM25.332 41.9863C22.6703 41.9862 20.4518 40.8766 19.084 38.9912L19.084 41.6162L14.5 41.6162L14.5 13.8877C14.5889 13.8877 14.8111 13.8882 14.9805 13.8887L19.3066 13.8887L19.3066 24.7949C20.7115 23.0944 22.8182 22.0958 25.332 22.0957C30.8037 22.0957 34.2793 26.1627 34.2793 32.041C34.2792 37.9193 30.8037 41.9863 25.332 41.9863ZM24.8662 37.623C27.9346 37.6229 30.0419 35.3312 30.042 32.041C30.042 28.7507 27.9346 26.4582 24.8662 26.458C21.7976 26.458 19.6904 28.7506 19.6904 32.041C19.6905 35.3313 21.7977 37.623 24.8662 37.623Z" fill="black"/>
</svg>
