<svg width="24" height="24" viewBox="0 0 24 24" fill="none" xmlns="http://www.w3.org/2000/svg">
<path d="M12 8C13.1046 8 14 7.10457 14 6C14 4.89543 13.1046 4 12 4C10.8954 4 10 4.89543 10 6C10 7.10457 10.8954 8 12 8ZM12 8V12.4444M12 12.4444L7.5 16.5M12 12.4444L15.5 15.5M8 18C8 19.1046 7.10457 20 6 20C4.89543 20 4 19.1046 4 18C4 16.8954 4.89543 16 6 16C7.10457 16 8 16.8954 8 18Z" stroke="black" stroke-width="1.5"/>
<circle cx="18" cy="18" r="2" stroke="url(#paint0_linear_124_8754)" stroke-width="1.5"/>
<defs>
<linearGradient id="paint0_linear_124_8754" x1="15.9983" y1="18" x2="19.9071" y2="18.608" gradientUnits="userSpaceOnUse">
<stop stop-color="#FFBDC1"/>
<stop offset="0.206731" stop-color="#FF6B75"/>
<stop offset="0.6875" stop-color="#B1202A"/>
<stop offset="0.942308" stop-color="#FF8A92"/>
</linearGradient>
</defs>
</svg>
