<svg width="24" height="24" viewBox="0 0 24 24" fill="none" xmlns="http://www.w3.org/2000/svg">
<path d="M10 18H3V16.5C3 15.5 4 13 8.5 13C11.3575 13 12.8037 14.0081 13.4788 15M19 10.5C19 12.433 17.433 14 15.5 14C13.567 14 12 12.433 12 10.5C12 8.567 13.567 7 15.5 7C17.433 7 19 8.567 19 10.5ZM10 20V18.5C10 17.5 11 15 15.5 15C20 15 21 17.5 21 18.5V20H10ZM12 8.5C12 10.433 10.433 12 8.5 12C6.567 12 5 10.433 5 8.5C5 6.567 6.567 5 8.5 5C10.433 5 12 6.567 12 8.5Z" stroke="white" stroke-width="1.5" stroke-linecap="square"/>
</svg>
