<svg width="24" height="24" viewBox="0 0 24 24" fill="none" xmlns="http://www.w3.org/2000/svg">
<path d="M10.5 11C12.433 11 14 9.433 14 7.5C14 5.567 12.433 4 10.5 4C8.56701 4 7 5.567 7 7.5C7 9.433 8.56701 11 10.5 11Z" stroke="black" stroke-width="1.5"/>
<path d="M13.1394 12.5C12.4429 12.1917 11.5769 12 10.5 12C6 12 5 14.5 5 15.5C5 16 5 17 5 17H11" stroke="black" stroke-width="1.5" stroke-linecap="square"/>
<path fill-rule="evenodd" clip-rule="evenodd" d="M16.5098 13.0136C16.7479 12.7805 17.1115 12.7508 17.3809 12.9257L17.4902 13.0136L18.3154 13.8222L19.4727 13.8339C19.806 13.8375 20.0838 14.0743 20.1504 14.3886L20.165 14.5273L20.1768 15.6836L20.9863 16.5097C21.2528 16.7819 21.2528 17.2171 20.9863 17.4892L20.1768 18.3154L20.165 19.4726C20.1608 19.8532 19.8533 20.1609 19.4727 20.165L18.3164 20.1757L17.4902 20.9863C17.2181 21.2528 16.7819 21.2527 16.5098 20.9863L15.6826 20.1757L14.5274 20.165C14.1466 20.161 13.8392 19.8533 13.835 19.4726L13.8223 18.3154L13.0137 17.4892C12.7471 17.217 12.7471 16.7819 13.0137 16.5097L13.8223 15.6836L13.835 14.5273L13.8496 14.3886C13.9162 14.0742 14.1939 13.8374 14.5274 13.8339L15.6836 13.8222L16.5098 13.0136ZM16.999 14.7597C15.7626 14.7601 14.7601 15.7625 14.7598 16.999C14.7598 18.2357 15.7624 19.2388 16.999 19.2392C18.236 19.2392 19.2393 18.236 19.2393 16.999C19.2389 15.7623 18.2358 14.7597 16.999 14.7597Z" fill="url(#paint0_linear_124_8772)"/>
<defs>
<linearGradient id="paint0_linear_124_8772" x1="12.8102" y1="16.9998" x2="20.9918" y2="18.2724" gradientUnits="userSpaceOnUse">
<stop stop-color="#FFBDC1"/>
<stop offset="0.206731" stop-color="#FF6B75"/>
<stop offset="0.6875" stop-color="#B1202A"/>
<stop offset="0.942308" stop-color="#FF8A92"/>
</linearGradient>
</defs>
</svg>
